HIERARCHY
ROOT pelvis
{
  OFFSET 0 100 0
  CHANNELS 6 Xposition Yposition Zposition Zrotation Xrotation Yrotation
  JOINT pelvis_right_femur
  {
    OFFSET -10.78128 -3.44521 -0.5502486
    CHANNELS 3 Zrotation Xrotation Yrotation
    JOINT right_femur_tibia
    {
      OFFSET -0.8047443 -44.0398 -0.1307829
      CHANNELS 3 Zrotation Xrotation Yrotation
      JOINT right_tibia_foot
      {
        OFFSET 3.006224 -47.83518 -5
        CHANNELS 3 Zrotation Xrotation Yrotation
        End Site
        {
          OFFSET 0 -5 15
        }
      }
    }
  }
  JOINT pelvis_left_femur
  {
    OFFSET 10.78128 -3.44521 -0.5502486
    CHANNELS 3 Zrotation Xrotation Yrotation
    JOINT left_femur_tibia
    {
      OFFSET 0.8047443 -44.0398 -0.1307829
      CHANNELS 3 Zrotation Xrotation Yrotation
      JOINT left_tibia_foot
      {
        OFFSET -4.370144 -48.10324 -4.275266
        CHANNELS 3 Zrotation Xrotation Yrotation
        End Site
        {
          OFFSET 0 -5 15
        }
      }
    }
  }
  JOINT pelvis_spine1
  {
    OFFSET 0 6.468898 -3.129235
    CHANNELS 3 Zrotation Xrotation Yrotation
    JOINT spine1
    {
      OFFSET 0 23.15396 4.99043
      CHANNELS 3 Zrotation Xrotation Yrotation
      JOINT spine2
      {
        OFFSET 0 20.79997 -5.064912
        CHANNELS 3 Zrotation Xrotation Yrotation
        JOINT neck
        {
          OFFSET 0 14.38658 9.616178
          CHANNELS 3 Zrotation Xrotation Yrotation
          End Site
          {
            OFFSET 0 20 0
          }
        }
      }
      JOINT right_manubrium
      {
        OFFSET -5.722621 16.35077 3.967754
        CHANNELS 3 Zrotation Xrotation Yrotation
        JOINT right_clavicle
        {
          OFFSET -13.16364 1.694482 -4.693211
          CHANNELS 3 Zrotation Xrotation Yrotation
          JOINT right_humerus
          {
            OFFSET -28.5034 -0.3100689 -2.792744
            CHANNELS 3 Zrotation Xrotation Yrotation
            JOINT right_radius
            {
              OFFSET -25.15693 0.02248979 -1.271978
              CHANNELS 3 Zrotation Xrotation Yrotation
              End Site
              {
                OFFSET -15 0 0
              }
            }
          }
        }
      }
      JOINT left_manubrium
      {
        OFFSET 5.722621 16.35077 3.967754
        CHANNELS 3 Zrotation Xrotation Yrotation
        JOINT left_clavicle
        {
          OFFSET 13.16364 1.694482 -4.693211
          CHANNELS 3 Zrotation Xrotation Yrotation
          JOINT left_humerus
          {
            OFFSET 29.39168 -1.063119 -2.237045
            CHANNELS 3 Zrotation Xrotation Yrotation
            JOINT left_radius
            {
              OFFSET 24.59957 -0.9528479 0.9047498
              CHANNELS 3 Zrotation Xrotation Yrotation
              End Site
              {
                OFFSET 15 -0 -0
              }
            }
          }
        }
      }
    }
  }
}
MOTION
Frames: 23
Frame Time: 0.0416666666667
0 103.5113 0 -0.1297527 -3.337039 -0.04672185 4.409285 -12.2706 8.234703 -0 39.3054 -0 -9.02707 -18.02482 -5.653014 -4.619364 9.396163 -21.14917 -0 6.115544 -0 8.256588 -12.80868 24.1942 -1.958791 -1.92917 4.963815 2.926641 9.421527 -7.766676 1.082899 20.0172 6.613745 3.983815 -25.61924 8.012477 5.63158 -18.91258 11.37198 84.56781 34.30471 -17.49209 -0 0 15.90453 -8.187653 7.734888 5.349933 7.04287 -20.94996 -0.5452349 -92.32063 20.33379 20.1195 0 0 -14.84726 12.20929 13.20177 -1.108604
0.2537192 103.5363 1.642824 -0.3899115 -2.592875 -0.01776331 5.210464 -15.02868 8.702139 -0 38.85802 -0 -8.297733 -18.2336 -5.861025 -4.53475 9.907516 -20.98618 -0 6.271164 -0 8.070227 -13.87649 23.68508 -1.965712 -2.012325 4.793899 3.09116 9.370305 -7.994101 1.121235 19.87751 6.692773 3.91649 -25.96283 8.267991 5.628088 -18.57233 11.3606 85.00721 34.3544 -18.21251 -0 0 15.21257 -7.927869 8.007407 5.169996 7.253227 -21.20817 -0.3603827 -91.72531 20.05489 19.01086 0 0 -15.88566 13.01069 13.13471 -2.084475
0.4813262 103.4491 3.404393 -0.153049 -2.168112 0.02357718 5.104469 -17.45323 7.947815 -0 36.6151 -0 -7.881079 -15.54943 -4.894982 -5.113059 11.07028 -21.05487 -0 6.955014 -0 7.443455 -15.99538 23.91337 -1.934363 -1.942407 4.740267 3.093685 9.351501 -7.998575 1.093373 19.97216 6.743333 3.887572 -25.99023 8.272659 5.594788 -18.56673 11.36843 85.13925 34.33699 -18.35756 -0 0 15.01117 -8.200044 8.175792 5.415329 7.060863 -21.13255 -0.4526412 -91.85058 20.72717 19.28921 0 0 -15.99787 12.15942 13.23242 -0.8774408
0.6876199 103.2634 5.353149 -0.1727687 -1.592563 0.07316828 5.419965 -20.23768 7.193663 -0 33.8537 -0 -7.648872 -13.15357 -4.137588 -5.360132 11.85553 -20.56967 -0 7.715557 -0 6.964359 -17.72379 23.51979 -1.911917 -1.940169 4.65186 3.166895 9.324419 -8.098873 1.081006 19.97824 6.794018 3.852184 -26.16135 8.34563 5.575902 -18.475 11.37082 85.39989 34.31918 -18.76316 -0 0 14.67568 -8.173391 8.281882 5.456233 7.008068 -21.18406 -0.4554241 -91.78227 21.12165 19.16509 0 0 -16.43335 11.85617 13.28158 -0.3881846
0.8780824 102.9856 7.509164 -0.2990864 -0.8486783 0.16426 5.842092 -23.00492 6.699194 -0 31.25486 -0 -7.317248 -11.34715 -3.605789 -5.466916 12.45444 -20.02654 -0 8.235715 -0 6.298532 -19.2336 22.80345 -1.885435 -1.92807 4.525994 3.25503 9.288534 -8.225373 1.067653 19.99 6.871565 3.804773 -26.36231 8.454397 5.55042 -18.32369 11.37411 85.74738 34.31676 -19.28509 -0 0 14.18588 -8.221135 8.495837 5.541812 6.944101 -21.25843 -0.4604007 -91.6328 21.59669 18.91625 0 0 -17.04121 11.48601 13.33605 0.2133905
1.05785 102.6377 9.936209 -0.5629459 0.001991586 0.3188728 6.435616 -25.72396 6.308613 -0 28.64643 -0 -7.054402 -9.759993 -3.210551 -5.401819 12.86156 -19.26852 -0 8.928659 -0 5.509503 -20.38306 21.66197 -1.860346 -1.924526 4.394471 3.351658 9.254449 -8.36539 1.054625 19.99044 6.949555 3.759862 -26.57771 8.568153 5.52791 -18.16028 11.37726 86.11653 34.31468 -19.84534 -0 0 13.67441 -8.232953 8.698662 5.598595 6.900313 -21.35506 -0.457872 -91.45172 22.02208 18.60805 0 0 -17.68833 11.19794 13.38228 0.7062441
1.232149 102.2481 12.70463 -0.9244821 0.9115646 0.5527603 7.101652 -28.2178 5.967084 -0 26.08289 -0 -6.913663 -8.25146 -2.883278 -5.213511 13.11006 -18.36237 -0 9.942503 -0 4.53281 -21.13724 20.14459 -1.835499 -1.91345 4.254136 3.44441 9.221829 -8.505302 1.040665 19.99576 7.036679 3.715132 -26.77975 8.687458 5.504661 -17.97793 11.38159 86.50068 34.32417 -20.41483 -0 0 13.12153 -8.304393 8.950687 5.681399 6.853332 -21.45821 -0.4627835 -91.23522 22.44221 18.25477 0 0 -18.36679 10.89749 13.42388 1.216632
1.406834 101.8564 15.89405 -1.369361 1.821933 0.872404 7.786096 -30.31752 5.616872 -0 23.60444 -0 -6.979894 -6.72531 -2.582912 -4.913166 13.19404 -17.31723 -0 11.52168 -0 3.353584 -21.38286 18.26045 -1.81258 -1.895358 4.118252 3.524823 9.194105 -8.632611 1.026063 20.00645 7.125064 3.674964 -26.95003 8.799492 5.482959 -17.79571 11.38704 86.86582 34.34383 -20.94405 -0 0 12.57963 -8.42932 9.226271 5.784095 6.804491 -21.55756 -0.4770755 -91.00835 22.82896 17.89882 0 0 -19.01358 10.5979 13.45769 1.717583
1.588252 101.5126 19.57671 -1.865938 2.654633 1.270893 8.411686 -31.80827 5.226415 -0 21.31688 -0 -7.307168 -5.180595 -2.289217 -4.52273 13.09884 -16.18286 -0 13.89294 -0 1.981265 -21.01139 16.08858 -1.792375 -1.864097 3.990404 3.584379 9.172727 -8.737209 1.011245 20.02741 7.216063 3.639446 -27.06877 8.902022 5.46256 -17.61438 11.39417 87.19546 34.38105 -21.40121 -0 0 12.05721 -8.650254 9.548146 5.928026 6.747935 -21.64454 -0.5055203 -90.76982 23.1767 17.54752 0 0 -19.60827 10.2797 13.48015 2.230879
1.782477 101.2789 23.80365 -2.371458 3.307599 1.723049 8.907886 -32.45305 4.781287 -0 19.35198 -0 -7.928802 -3.679474 -1.999039 -4.065494 12.78306 -15.01452 -0 17.30831 -0 0.4735631 -19.91819 13.76741 -1.776228 -1.817007 3.878484 3.615099 9.159858 -8.808504 0.9971725 20.0603 7.306983 3.609706 -27.11792 8.989736 5.444181 -17.44147 11.40314 87.46515 34.43959 -21.74724 -0 0 11.58119 -8.987995 9.919581 6.122481 6.682475 -21.7103 -0.549837 -90.52692 23.46573 17.21801 0 0 -20.11574 9.944161 13.4863 2.748447
1.993196 101.2286 28.58453 -2.823256 3.65812 2.181141 9.215106 -32.01414 4.290197 -0 17.84073 -0 -8.836928 -2.342867 -1.722368 -3.574723 12.1687 -13.87643 -0 21.98055 -0 -1.064483 -18.05637 11.51409 -1.765309 -1.750173 3.789266 3.608651 9.157508 -8.835955 0.9848782 20.10753 7.396469 3.58599 -27.07833 9.058783 5.42788 -17.28192 11.41427 87.65238 34.52382 -21.9447 -0 0 11.1725 -9.473123 10.3516 6.382638 6.605441 -21.74577 -0.6124802 -90.28294 23.68028 16.92269 0 0 -20.5076 9.585534 13.47027 3.27226
2.21803 101.4391 33.86724 -3.143046 3.579648 2.576174 9.301458 -30.30048 3.783215 -0 16.85156 -0 -9.970926 -1.327453 -1.476398 -3.090792 11.12393 -12.82222 -0 27.99761 -0 -2.498617 -15.48673 9.600633 -1.760827 -1.660802 3.731446 3.556809 9.167501 -8.808483 0.9755875 20.17102 7.481262 3.568753 -26.9317 9.103674 5.413523 -17.14429 11.42755 87.73112 34.63439 -21.95295 -0 0 10.8606 -10.12705 10.84476 6.719825 6.514762 -21.74039 -0.6952327 -90.04759 23.80532 16.6824 0 0 -20.74901 9.199475 13.42621 3.801738
2.444425 101.9725 39.52294 -3.252431 2.973866 2.829159 9.173207 -27.23651 3.300466 -0 16.31635 -0 -11.20694 -0.7965212 -1.276939 -2.652133 9.459069 -11.87274 -0 35.17261 -0 -3.695809 -12.42634 8.305522 -1.763757 -1.546629 3.714312 3.451852 9.190905 -8.715187 0.970525 20.25306 7.557131 3.5584 -26.6617 9.118157 5.400294 -17.03925 11.4427 87.67508 34.76734 -21.7324 -0 0 10.67827 -10.96442 11.39151 7.143272 6.407708 -21.68229 -0.7999228 -89.83575 23.83346 16.52479 0 0 -20.80433 8.776122 13.349 4.343987
2.648825 102.8422 45.34952 -3.104393 1.816753 2.873104 8.877755 -22.93457 2.869047 -0 15.97973 -0 -12.36429 -0.8843551 -1.127821 -2.274179 6.951599 -10.99337 -0 42.88271 -0 -4.549038 -9.252851 7.838218 -1.774674 -1.407016 3.747622 3.287778 9.227486 -8.546443 0.9709372 20.35582 7.618376 3.55535 -26.25757 9.095474 5.386517 -16.98044 11.45903 87.45948 34.91149 -21.24801 -0 0 10.66231 -11.98463 11.97091 7.655781 6.281549 -21.55876 -0.9274663 -89.66962 23.76764 16.48599 0 0 -20.63842 8.301901 13.23524 4.912031
2.80474 103.9735 51.10703 -2.719052 0.2049922 2.676329 8.49619 -17.73092 2.480305 -0 15.43088 -0 -13.24004 -1.664548 -1.012844 -1.92142 3.419071 -10.09019 -0 49.99326 -0 -4.980547 -6.431603 8.25762 -1.79341 -1.243548 3.840081 3.061844 9.275376 -8.295972 0.9780148 20.48066 7.658745 3.559638 -25.71811 9.030224 5.369364 -16.98289 11.47565 87.06634 35.04747 -20.47699 -0 0 10.84742 -13.16957 12.55132 8.252261 6.133812 -21.35816 -1.077178 -89.57582 23.62382 16.60551 0 0 -20.22519 7.760079 13.08396 5.525546
2.901073 105.1849 56.58719 -2.19786 -1.626297 2.250998 8.123279 -12.13323 2.088295 -0 14.25636 -0 -13.67448 -3.134117 -0.8985157 -1.490763 -1.166196 -9.040545 -0 55.01428 -0 -4.936441 -4.359462 9.418357 -1.81873 -1.060796 3.997656 2.776185 9.331195 -7.963247 0.9928762 20.62698 7.672635 3.570299 -25.05537 8.920711 5.34487 -17.06059 11.4918 86.49057 35.14864 -19.41723 -0 0 11.2591 -14.4833 13.09671 8.918746 5.963108 -21.07275 -1.245803 -89.58023 23.42951 16.91808 0 0 -19.55765 7.134951 12.89681 6.206672
2.959891 106.2188 61.68956 -1.692063 -3.348573 1.641341 7.831597 -6.668984 1.643517 -0 12.26791 -0 -13.61875 -5.22126 -0.7550983 -0.8365869 -6.567274 -7.756837 -0 56.55255 -0 -4.407503 -3.19416 10.99445 -1.848182 -0.8663491 4.221713 2.438641 9.390763 -7.555463 1.016524 20.79095 7.656793 3.584658 -24.29545 8.771216 5.30837 -17.22275 11.50742 85.74565 35.18524 -18.09428 -0 0 11.90494 -15.87867 13.57803 9.634725 5.769871 -20.7021 -1.427309 -89.70015 23.21855 17.44212 0 0 -18.65839 6.416437 12.6776 6.974675
3.034887 106.822 66.45563 -1.332764 -4.653654 0.9067772 7.630132 -1.709093 1.148241 -0 9.669439 -0 -13.15124 -7.806183 -0.590301 0.1471675 -12.25419 -6.257214 -0 53.8951 -0 -3.477985 -2.792142 12.59999 -1.878367 -0.6699364 4.507902 2.062147 9.450119 -7.087837 1.049802 20.96513 7.611599 3.598007 -23.47485 8.59277 5.255441 -17.47022 11.52334 84.86514 35.13118 -16.5626 -0 0 12.7691 -17.30806 13.98403 10.37775 5.556943 -20.25522 -1.613625 -89.93693 23.02293 18.16997 0 0 -17.584 5.604376 12.43108 7.839614
3.185893 106.8324 71.03474 -1.167812 -5.38458 0.1143204 7.448919 2.616366 0.6859374 -0 7.040278 -0 -12.42092 -10.71757 -0.465423 1.420781 -17.50897 -4.70722 -0 47.38036 -0 -2.3392 -2.817141 13.94811 -1.905665 -0.4816833 4.846178 1.662749 9.506362 -6.581845 1.093265 21.13928 7.541357 3.604144 -22.63339 8.401638 5.1831 -17.79335 11.54104 83.8987 34.97089 -14.89924 -0 0 13.81207 -18.73349 14.32533 11.12822 5.329814 -19.75043 -1.796174 -90.27241 22.86515 19.06379 0 0 -16.41973 4.710904 12.16158 8.797333
3.449678 106.2232 75.61189 -1.150449 -5.599822 -0.6682819 7.172446 6.367453 0.3807148 -0 5.134691 -0 -11.57301 -13.67391 -0.4591115 2.74578 -21.63681 -3.401381 -0 38.323 -0 -1.22116 -2.934965 14.94959 -1.927164 -0.3102084 5.221719 1.257367 9.557955 -6.062257 1.146859 21.30217 7.453445 3.596882 -21.80748 8.2159 5.090837 -18.17222 11.56196 82.90411 34.70353 -13.19284 -0 0 14.97539 -20.12952 14.62811 11.87109 5.09653 -19.213 -1.96739 -90.67102 22.75418 20.05944 0 0 -15.26481 3.761116 11.87221 9.826516
3.829767 105.0981 80.35066 -1.17997 -5.526635 -1.389015 6.701639 9.675729 0.3060338 -0 4.608038 -0 -10.72516 -16.21707 -0.5919434 3.754181 -24.17986 -2.664963 -0 28.56191 -0 -0.2943729 -2.952124 15.70007 -1.941355 -0.161266 5.615967 0.8624434 9.604622 -5.554558 1.209318 21.44378 7.356962 3.572065 -21.02683 8.051469 4.981203 -18.57888 11.58671 81.93949 34.34352 -11.53368 -0 0 16.18785 -21.47798 14.921 12.59375 4.867206 -18.67211 -2.121722 -91.08626 22.68635 21.07625 0 0 -14.21449 2.792134 11.56535 10.88885
4.306576 103.6561 85.37274 -1.156777 -5.437576 -2.025383 6.00005 12.64313 0.4208989 -0 5.806367 -0 -9.984871 -17.75143 -0.7795009 4.12393 -25.02594 -2.702559 -0 19.87854 -0 0.3734923 -2.840326 16.37944 -1.948309 -0.03719749 6.007461 0.4936337 9.647225 -5.083474 1.277464 21.55687 7.261554 3.52925 -20.31488 7.918939 4.859824 -18.98073 11.61466 81.05829 33.91838 -10.00755 -0 0 17.37084 -22.75942 15.22238 13.28235 4.65299 -18.15829 -2.256214 -91.46886 22.64965 22.02883 0 0 -13.34562 1.849863 11.24365 11.93341
4.85342 102.1455 90.75699 -1.019227 -5.529626 -2.579826 5.100432 15.28866 0.5878382 -0 8.713182 -0 -9.458167 -17.72597 -0.8607946 3.73317 -24.37621 -3.496385 -0 13.52228 -0 0.7930071 -2.683469 17.13251 -1.949357 0.06292158 6.372951 0.1656729 9.687794 -4.672111 1.345896 21.63786 7.176602 3.472265 -19.6901 7.822109 4.734774 -19.34407 11.64409 80.30661 33.46481 -8.692246 -0 0 18.44324 -23.94841 15.53472 13.91986 4.464548 -17.70142 -2.370903 -91.77361 22.62901 22.8378 0 0 -12.7096 0.9829402 10.91076 12.90515
